<svg xmlns="http://www.w3.org/2000/svg" shape-rendering="geometricPrecision" text-rendering="geometricPrecision" image-rendering="optimizeQuality" fill-rule="evenodd" clip-rule="evenodd" viewBox="0 0 363 511.49"><path d="M46.73 0h256.78c16.33 0 31.2 6.71 41.98 17.48C356.29 28.29 363 43.17 363 59.5v443.54c0 4.66-3.79 8.45-8.45 8.45a8.41 8.41 0 01-5.42-1.96L181.42 378.99 13.64 509.68c-3.66 2.85-8.97 2.21-11.82-1.46a8.365 8.365 0 01-1.78-5.18L0 46.73c0-12.82 5.25-24.5 13.72-32.98C22.25 5.24 33.92 0 46.73 0zm80.74 190.23c-4.72-4.8-4.65-12.52.14-17.24 4.8-4.71 12.52-4.65 17.24.15l20.1 20.5 52.57-63.33c4.28-5.16 11.96-5.86 17.12-1.58 5.17 4.29 5.87 11.97 1.58 17.13l-61.98 74.62c-4.8 4.72-12.52 4.65-17.24-.14l-29.53-30.11zM181.5 62.04c31.14 0 59.38 12.64 79.82 33.09 20.44 20.41 33.09 48.64 33.09 79.81s-12.65 59.41-33.07 79.84c-20.43 20.43-48.67 33.07-79.84 33.07-31.18 0-59.4-12.64-79.83-33.07-20.43-20.46-33.08-48.7-33.08-79.84 0-31.13 12.64-59.35 33.08-79.8 20.47-20.47 48.69-33.1 79.83-33.1z"/></svg>