<?xml version="1.0" encoding="iso-8859-1"?>
<!-- Generator: Adobe Illustrator 19.0.0, SVG Export Plug-In . SVG Version: 6.00 Build 0)  -->
<svg version="1.1" xmlns="http://www.w3.org/2000/svg" xmlns:xlink="http://www.w3.org/1999/xlink" x="0px" y="0px"
	 viewBox="0 0 520 520" style="enable-background:new 0 0 520 520;" xml:space="preserve">
<g id="_x36_94_x2C__Automation_x2C__Engineer_x2C__Engineering_x2C__Project">
	<g>
		<path d="M300,76.658v36.253h15c2.762,0,5,2.239,5,5c0,2.761-2.238,5-5,5H215c-2.761,0-5-2.239-5-5c0-2.761,2.239-5,5-5h15V76.658
			c-72.654,15.755-127.631,79.496-129.925,156.253h329.851C427.631,156.153,372.654,92.413,300,76.658z M385,202.91H145
			c-2.761,0-5-2.239-5-5c0-2.761,2.239-5,5-5h240c2.762,0,5,2.239,5,5C390,200.671,387.762,202.91,385,202.91z"/>
		<polygon points="450,242.91 435,242.91 95,242.91 80,242.91 80,272.91 450,272.91 		"/>
		<path d="M290,74.805c-8.155-1.245-16.503-1.895-25-1.895s-16.845,0.649-25,1.895v38.105h50V74.805z"/>
		<path d="M290,64.704V42.91h-50v21.793c8.168-1.173,16.513-1.793,25-1.793S281.832,63.53,290,64.704z"/>
		<path d="M260,329.978c0-2.762-2.238-5-5-5h-54.146c-2.761,0-5,2.238-5,5c0,38.128,31.019,69.148,69.146,69.148
			c38.128,0,69.146-31.02,69.146-69.148c0-2.762-2.238-5-5-5c-2.762,0-5,2.238-5,5c0,32.614-26.533,59.148-59.146,59.148
			c-0.993,0-1.98-0.026-2.963-0.075c-0.329-0.017-0.653-0.049-0.98-0.071c-0.65-0.043-1.302-0.084-1.947-0.148
			c-0.386-0.038-0.767-0.093-1.15-0.139c-0.579-0.069-1.159-0.136-1.733-0.221c-0.409-0.062-0.812-0.138-1.218-0.207
			c-0.543-0.093-1.086-0.184-1.624-0.291c-0.415-0.083-0.825-0.179-1.237-0.271c-0.521-0.116-1.042-0.231-1.558-0.36
			c-0.415-0.104-0.824-0.22-1.235-0.333c-0.505-0.139-1.01-0.277-1.509-0.43c-0.411-0.125-0.818-0.259-1.226-0.393
			c-0.49-0.161-0.979-0.323-1.463-0.496c-0.406-0.146-0.809-0.298-1.21-0.451c-0.476-0.183-0.951-0.367-1.42-0.561
			c-0.399-0.164-0.795-0.335-1.19-0.508c-0.463-0.203-0.924-0.411-1.381-0.626c-0.39-0.183-0.778-0.37-1.163-0.561
			c-0.45-0.224-0.897-0.453-1.341-0.688c-0.38-0.201-0.759-0.405-1.135-0.614c-0.439-0.244-0.873-0.496-1.305-0.752
			c-0.368-0.217-0.735-0.436-1.097-0.66c-0.429-0.266-0.852-0.54-1.273-0.816c-0.354-0.232-0.708-0.464-1.057-0.704
			c-0.418-0.287-0.829-0.584-1.239-0.882c-0.339-0.245-0.679-0.49-1.013-0.743c-0.408-0.309-0.808-0.629-1.207-0.948
			c-0.322-0.258-0.647-0.513-0.964-0.777c-0.4-0.334-0.791-0.68-1.182-1.023c-0.302-0.266-0.608-0.527-0.905-0.799
			c-0.397-0.364-0.782-0.741-1.169-1.115c-0.276-0.268-0.558-0.529-0.829-0.802c-0.408-0.411-0.802-0.835-1.198-1.257
			c-0.235-0.251-0.478-0.495-0.709-0.75c-0.479-0.528-0.94-1.07-1.4-1.616c-0.136-0.161-0.279-0.315-0.413-0.479
			c-0.586-0.711-1.156-1.436-1.71-2.175c-0.166-0.221-0.32-0.45-0.483-0.674c-0.381-0.524-0.763-1.048-1.128-1.585
			c-0.205-0.303-0.397-0.613-0.597-0.92c-0.306-0.47-0.615-0.938-0.908-1.416c-0.208-0.339-0.403-0.686-0.604-1.03
			c-0.268-0.457-0.538-0.914-0.794-1.379c-0.199-0.362-0.386-0.732-0.578-1.099c-0.239-0.458-0.48-0.916-0.708-1.381
			c-0.186-0.38-0.361-0.767-0.539-1.15c-0.215-0.464-0.429-0.927-0.632-1.396c-0.17-0.395-0.331-0.795-0.493-1.193
			c-0.191-0.47-0.38-0.94-0.559-1.415c-0.153-0.408-0.298-0.82-0.443-1.232c-0.167-0.477-0.332-0.955-0.488-1.438
			c-0.134-0.418-0.262-0.84-0.388-1.262c-0.145-0.486-0.285-0.975-0.417-1.467c-0.115-0.426-0.224-0.854-0.33-1.285
			c-0.122-0.495-0.237-0.994-0.346-1.494c-0.095-0.436-0.186-0.871-0.271-1.31c-0.098-0.505-0.187-1.012-0.272-1.521
			c-0.074-0.441-0.145-0.884-0.209-1.328c-0.074-0.516-0.137-1.034-0.198-1.554c-0.052-0.445-0.103-0.89-0.145-1.338
			c-0.017-0.179-0.026-0.359-0.041-0.538H255C257.762,334.978,260,332.74,260,329.978z"/>
		<path d="M353.223,405.886l36.212,14.261c2.308,0.908,4.93-0.01,6.165-2.157l10.895-18.919c1.233-2.143,0.717-4.865-1.218-6.405
			l-30.409-24.229c1.923-5.484,3.431-11.117,4.501-16.819l38.44-5.756c2.448-0.367,4.26-2.47,4.26-4.945v-21.832
			c0-2.474-1.809-4.575-4.255-4.944l-42.019-6.335c-2.723-0.411-5.277,1.468-5.689,4.199c-0.411,2.73,1.469,5.277,4.199,5.689
			l37.764,5.693v13.223l-37.759,5.653c-2.165,0.324-3.867,2.02-4.201,4.184c-1.149,7.448-3.115,14.798-5.845,21.845
			c-0.789,2.039-0.162,4.354,1.548,5.716l29.871,23.8l-6.597,11.455l-35.557-14.003c-2.029-0.798-4.348-0.188-5.721,1.509
			c-4.754,5.881-10.143,11.27-16.019,16.02c-1.699,1.373-2.31,3.688-1.51,5.721l14.002,35.557l-11.455,6.598l-23.798-29.872
			c-1.363-1.711-3.681-2.339-5.717-1.547c-7.046,2.729-14.396,4.695-21.845,5.845c-2.164,0.334-3.859,2.036-4.184,4.202l-5.654,37.8
			h-13.222l-5.693-37.805c-0.326-2.164-2.02-3.864-4.182-4.197c-7.45-1.149-14.799-3.115-21.845-5.845
			c-2.04-0.792-4.355-0.164-5.717,1.547l-23.796,29.868l-11.42-6.592l13.967-35.563c0.795-2.025,0.19-4.333-1.498-5.706
			c-5.881-4.786-11.261-10.179-15.99-16.03c-1.374-1.697-3.689-2.31-5.721-1.509l-35.563,14.006l-6.627-11.463l29.866-23.795
			c1.703-1.356,2.332-3.658,1.556-5.692c-2.696-7.067-4.667-14.434-5.857-21.895c-0.343-2.152-2.041-3.834-4.197-4.157
			l-37.759-5.653v-13.223l37.764-5.693c2.73-0.412,4.61-2.959,4.199-5.689c-0.412-2.731-2.959-4.612-5.69-4.199l-42.018,6.335
			c-2.446,0.369-4.254,2.471-4.254,4.944v21.832c0,2.476,1.812,4.578,4.259,4.945l38.457,5.758
			c1.09,5.696,2.596,11.325,4.497,16.808l-30.422,24.238c-1.936,1.542-2.452,4.27-1.213,6.413l10.938,18.919
			c1.238,2.142,3.858,3.053,6.161,2.149l36.211-14.261c3.775,4.381,7.888,8.503,12.281,12.308l-14.227,36.224
			c-0.905,2.304,0.011,4.922,2.154,6.158l18.876,10.896c2.144,1.237,4.868,0.722,6.41-1.215l24.227-30.409
			c5.485,1.924,11.118,3.431,16.823,4.501l5.796,38.486c0.369,2.446,2.47,4.256,4.944,4.256h21.833c2.476,0,4.579-1.812,4.945-4.261
			l5.756-38.481c5.703-1.07,11.336-2.578,16.819-4.501l24.227,30.409c1.541,1.936,4.264,2.452,6.406,1.218l18.919-10.896
			c2.147-1.236,3.065-3.859,2.157-6.165l-14.26-36.212C345.306,414.41,349.43,410.287,353.223,405.886z"/>
		<circle cx="115" cy="57.91" r="10"/>
		<path d="M90,57.91c0-2.761-2.239-5-5-5H45c-2.761,0-5,2.239-5,5c0,2.761,2.239,5,5,5h40C87.761,62.91,90,60.671,90,57.91z"/>
		<circle cx="465" cy="447.91" r="10"/>
		<circle cx="75" cy="357.91" r="10"/>
		<circle cx="455" cy="357.91" r="10"/>
		<circle cx="465" cy="157.91" r="10"/>
		<circle cx="85" cy="117.91" r="10"/>
		<path d="M435,442.91h-40c-2.762,0-5,2.238-5,5c0,2.762,2.238,5,5,5h40c2.762,0,5-2.238,5-5C440,445.148,437.762,442.91,435,442.91
			z"/>
		<path d="M75,412.91c-13.785,0-25,11.215-25,25c0,13.785,11.215,25,25,25s25-11.215,25-25C100,424.125,88.785,412.91,75,412.91z"/>
		<path d="M450,112.91c16.542,0,30-13.458,30-30c0-16.542-13.458-30-30-30s-30,13.458-30,30C420,99.452,433.458,112.91,450,112.91z"
			/>
	</g>
</g>
<g id="Layer_1">
</g>
</svg>
